# xmcd
#
# Track frame offsets:
#  150
#  9207
#  22428
#  33925
#  43109
#  51147
#  60628
#  69610
#  81194
#  92059
#  103292
#  114424
#  126540
#  137334
#  146888
#  158177
#  169803
#  177698
#  187474
#  196604
#  207193
#  216205
#  224089
#  236544
#  248699
#  260616
#  270038
#  281809
#  292377
#  301775
#
# Disc length: 4219 seconds
#
# Revision: 0
# Processed by: cddbd v1.5.2PL0 Copyright (c) Steve Scherf et al.
# Submitted via: AltoMP3_Maker 3.0
#
DISCID=d710791e
DTITLE=Various Artist - High on the Hog, Vol. 1
DYEAR=1900
DGENRE=
TTITLE0=Jimmy and Russ Williams - High on the Hog
TTITLE1=Jim Nesbitt - A Tiger in My Tank
TTITLE2=E Johnston - Shotgun Weddin'
TTITLE3=Wallace Walters - There's Not Room for Two
TTITLE4=Wally Black - I'm a Country Boy
TTITLE5=Bill Lanham - T for Texas
TTITLE6=Otis Pierce - Annabelle
TTITLE7=Chuck Stacey - You Think It's Funny
TTITLE8=Howard Western - Sawmill Boogie
TTITLE9=Buddy Bruce - Rolling on
TTITLE10=Johnny Acton - Snuffy Smith
TTITLE11=Rudy Gaddis - Stranger with a Colt 45
TTITLE12=Gene Smith - Old Man Stone
TTITLE13=James D Burhus - Don't Monkey with My Widder
TTITLE14=Ray Wilson - Heart Stealer
TTITLE15=Ken Patrick - Night Train
TTITLE16=Tony Senn - You Can't Kiss Me
TTITLE17=Carl Stevens - Big Eyed Blonde
TTITLE18=Dub Jones - A Hundred Times This Week
TTITLE19=Sharlet Sexton - Since My Baby Put Me Down
TTITLE20=Arnold Bennett - Wahoo
TTITLE21=Billy Starr - I Wanta
TTITLE22=Robert Zehm - Satan's Suitcase
TTITLE23=Charles Huff - Legend of Hole
TTITLE24=Larry Butler - 13th Notch
TTITLE25=Paula Berry - Third Angle
TTITLE26=Dottie Mae - A Good Man Is Hard to Find
TTITLE27=Otis Pierce - Blue Eyed Darlin'
TTITLE28=Woody and Lena Hix - Lovely Little Baby
TTITLE29=York Bros - Monday Morning Blues
EXTD=
EXTT0=
EXTT1=
EXTT2=
EXTT3=
EXTT4=
EXTT5=
EXTT6=
EXTT7=
EXTT8=
EXTT9=
EXTT10=
EXTT11=
EXTT12=
EXTT13=
EXTT14=
EXTT15=
EXTT16=
EXTT17=
EXTT18=
EXTT19=
EXTT20=
EXTT21=
EXTT22=
EXTT23=
EXTT24=
EXTT25=
EXTT26=
EXTT27=
EXTT28=
EXTT29=
PLAYORDER=
